<?xml version="1.0" encoding="UTF-8" standalone="no"?>
<!DOCTYPE svg PUBLIC "-//W3C//DTD SVG 1.1//EN" "http://www.w3.org/Graphics/SVG/1.1/DTD/svg11.dtd">
<svg width="100%" height="100%" viewBox="0 0 100 100" version="1.1" xmlns="http://www.w3.org/2000/svg" xmlns:xlink="http://www.w3.org/1999/xlink" xml:space="preserve" style="fill-rule:evenodd;clip-rule:evenodd;stroke-linejoin:round;stroke-miterlimit:1.41421;">
    <g transform="matrix(1,0,0,1,0.0217908,0.000131894)">
        <g transform="matrix(0.51303,0,0,0.514537,-0.0106115,-6.40296e-05)">
            <path d="M97.431,0C154.005,-0.09 195.093,45.893 194.898,97.427C194.702,149.275 152.474,194.646 96.646,194.348C43.881,194.066 -0.699,151.217 -0.014,95.601C0.618,44.218 41.551,-0.066 97.431,0ZM179.302,97.086C179.577,52.418 143.299,15.328 98.035,14.971C52.865,14.615 15.367,50.728 15.322,96.895C15.278,142.676 52.025,178.996 97.322,179.008C143.555,179.022 179.498,141.356 179.302,97.086Z" style="fill:rgb(2,179,228);"/>
        </g>
        <g transform="matrix(0.51303,0,0,0.514668,-0.0106115,-6.40123e-05)">
            <path d="M52.986,69.408C53.575,69.32 54.163,69.155 54.752,69.153C61.735,69.135 68.719,69.126 75.702,69.17C76.297,69.174 76.89,69.577 77.483,69.795C76.936,70.299 76.468,71.017 75.821,71.259C74.872,71.615 73.784,71.58 72.777,71.808C71.12,72.183 69.932,73.044 69.862,74.935C69.832,75.74 69.72,76.544 69.718,77.349C69.69,87.68 69.589,98.011 69.692,108.341C69.748,113.974 69.753,119.621 70.947,125.195C72.201,131.049 75.597,134.849 81.273,136.617C88.703,138.93 96.143,138.865 103.521,136.421C109.783,134.347 113.059,129.747 113.776,123.364C114.244,119.197 114.482,114.984 114.507,110.791C114.595,96.536 114.502,82.28 114.587,68.025C114.6,65.867 114.971,63.649 115.568,61.571C116.76,57.423 120.451,54.808 124.738,54.721C129.87,54.617 135.002,54.461 140.134,54.432C140.839,54.429 141.547,55.029 142.254,55.349C141.601,55.86 141.019,56.616 140.28,56.828C138.855,57.238 137.335,57.302 135.867,57.58C133.535,58.022 132.605,59.125 132.598,61.509C132.578,68.492 132.627,75.476 132.583,82.459C132.5,95.5 132.542,108.545 132.208,121.581C131.918,132.887 124.383,143.141 111.842,144.837C105.977,145.63 100.06,146.387 94.158,146.456C87.554,146.533 80.925,145.944 74.661,143.399C66.413,140.048 61.544,133.889 60.238,125.207C59.497,120.276 59.399,115.222 59.354,110.22C59.253,99.083 59.371,87.944 59.393,76.804C59.4,72.993 58.887,72.411 55.233,71.422C54.357,71.185 53.599,70.513 52.786,70.042C52.854,69.831 52.92,69.62 52.986,69.408Z" style="fill:rgb(2,179,228);"/>
        </g>
    </g>
</svg>
